# xmcd
#
# Track frame offsets:
#	150
#	23888
#	38900
#	51540
#	62591
#	72650
#	85171
#	105744
#	118478
#	147627
#	173892
#	190868
#	201590
#	222227
#	234004
#
# Disc length: 3238 seconds
#
# Revision: 2
# Processed by: cddbd v1.5.2PL0 Copyright (c) Steve Scherf et al.
# Submitted via: audiograbber 1.83.01
#
DISCID=eb0ca40f
DTITLE=Various Artist - Blue Christmas (MOJO Jan/2005)
DYEAR=2005
DGENRE=MOJO
TTITLE0=Flaming Lips - A Change At Christmas (Say It Isn't So)
TTITLE1=Rufus Wainwright - Spotlight On Christmas
TTITLE2=Marvin Gaye - Purple Snowflakes
TTITLE3=Staple Singers - Who Took The Merry Out Of Christmas
TTITLE4=The O'Jays - Christmas Ain't Christmas, New Years Ain't New Years Witho
TTITLE4=ut The One You Love
TTITLE5=Charles Brown - Please Come Home For Christmas
TTITLE6=David McAlmont and David Arnold - Have Yourself A Merry Christmas
TTITLE7=A Girl Called Eddy  - The Little Boy That Santa Claus Forgot
TTITLE8=James Brown - Let's Make Christmas Mean Something This Year (Part 1 and 2
TTITLE8=)
TTITLE9=Neal Casal - Cora Jones
TTITLE10=Handsome Family - So Much Wine
TTITLE11=Diana Ross and The Supremes - Just A Lonely Christmas
TTITLE12=Ed Harcourt - In The Bleak Midwinter
TTITLE13=B.B. King - Christmas Celebration
TTITLE14=The Ventures - Jingle Bell Rock
EXTD=
EXTT0=
EXTT1=
EXTT2=
EXTT3=
EXTT4=
EXTT5=
EXTT6=
EXTT7=
EXTT8=
EXTT9=
EXTT10=
EXTT11=
EXTT12=
EXTT13=
EXTT14=
PLAYORDER=
